<?xml version="1.0" encoding="UTF-8" standalone="no"?>
<!DOCTYPE svg PUBLIC "-//W3C//DTD SVG 20010904//EN"
              "http://www.w3.org/TR/2001/REC-SVG-20010904/DTD/svg10.dtd">

<svg xmlns="http://www.w3.org/2000/svg"
     viewBox="0 0 125 31">
  <path
        fill="#294459"
        d="M 11.30,14.00
           C 11.30,14.00 3.50,11.30 3.50,11.30
             2.46,10.96 0.91,10.67 0.60,9.47
             0.07,7.45 2.12,6.71 3.50,5.90
             3.50,5.90 10.70,1.70 10.70,1.70
             12.54,0.64 13.57,-0.37 15.50,1.10
             15.50,1.10 2.60,8.90 2.60,8.90
             5.13,9.90 5.39,9.10 7.70,7.78
             7.70,7.78 14.30,3.97 14.30,3.97
             16.38,2.77 16.71,2.03 19.10,2.90
             19.10,2.90 19.10,3.50 19.10,3.50
             19.10,3.50 6.50,10.70 6.50,10.70
             7.06,11.13 7.53,11.60 8.30,11.56
             8.97,11.53 10.66,10.47 11.30,10.10
             11.30,10.10 17.90,6.20 17.90,6.20
             19.79,5.09 21.11,3.75 23.00,5.60
             23.00,5.60 10.10,13.10 10.10,13.10
             10.10,13.10 11.30,14.00 11.30,14.00 Z
           M 11.90,14.00
           C 11.90,14.00 22.70,7.83 22.70,7.83
             25.06,6.47 26.88,6.13 26.83,9.50
             26.91,10.69 26.96,12.92 26.83,14.00
             26.07,17.65 22.31,23.99 19.69,26.59
             18.67,27.60 15.12,30.07 13.70,30.07
             12.79,30.08 11.77,29.44 11.00,29.00
             11.00,29.00 13.65,19.10 13.65,19.10
             14.58,16.93 16.06,16.89 16.40,13.70
             14.51,14.93 13.83,15.58 11.90,14.00 Z
           M 47.60,20.00
           C 44.56,21.61 42.02,22.61 38.60,21.09
             35.25,19.60 34.66,16.98 34.70,13.70
             34.72,11.71 35.11,10.39 36.53,8.91
             38.43,6.94 41.68,6.33 44.30,6.96
             45.08,7.15 46.65,7.82 46.90,8.65
             47.14,9.49 46.24,10.30 45.20,10.12
             44.62,10.02 43.34,9.21 41.90,9.28
             39.12,9.42 36.84,12.14 37.25,14.90
             37.65,17.58 39.82,19.29 42.50,19.13
             44.92,18.99 46.03,16.73 47.60,20.00 Z
           M 25.70,8.60
           C 22.38,9.40 23.94,10.20 22.50,14.60
             21.36,18.09 19.35,21.33 16.70,23.89
             14.23,26.27 13.71,25.51 13.70,28.70
             15.90,28.00 17.61,26.19 19.10,24.50
             22.84,20.24 25.57,14.32 25.70,8.60 Z
           M 21.20,11.00
           C 17.46,12.68 19.34,13.50 17.27,17.00
             15.75,19.57 14.31,20.19 13.88,21.25
             13.65,21.82 13.70,22.96 13.70,23.60
             18.07,21.89 20.99,15.50 21.20,11.00 Z
           M 52.10,11.14
           C 54.07,10.88 55.98,11.29 57.31,12.89
             59.37,15.36 58.59,19.61 55.70,21.06
             54.77,21.53 53.71,21.52 52.70,21.49
             46.79,21.33 45.97,12.66 52.10,11.14 Z
           M 62.30,12.20
           C 64.44,10.87 66.41,10.32 68.00,12.80
             68.56,12.33 69.11,11.84 69.80,11.56
             71.91,10.71 74.69,11.49 75.53,13.70
             75.97,14.85 75.80,19.94 75.80,21.50
             75.80,21.50 73.40,21.50 73.40,21.50
             73.40,19.58 74.11,14.19 71.60,13.72
             70.48,13.52 69.69,14.57 69.39,15.50
             69.08,16.48 69.20,20.24 69.20,21.50
             69.20,21.50 66.80,21.50 66.80,21.50
             66.80,19.56 67.50,13.76 64.70,13.56
             63.55,13.48 62.87,14.54 62.58,15.50
             62.17,16.87 62.30,19.94 62.30,21.50
             62.30,21.50 59.90,21.50 59.90,21.50
             59.90,21.50 59.90,11.30 59.90,11.30
             61.05,11.30 61.82,11.04 62.30,12.20 Z
           M 80.60,12.50
           C 81.41,11.85 81.96,11.40 83.00,11.16
             88.46,9.90 91.16,17.62 87.17,20.66
             86.03,21.52 84.96,21.53 83.60,21.49
             82.18,21.46 81.82,21.27 80.60,20.60
             80.52,21.68 80.87,24.80 80.12,25.39
             79.64,25.77 78.50,25.70 77.90,25.70
             77.90,25.70 77.90,11.30 77.90,11.30
             77.90,11.30 80.30,11.30 80.30,11.30
             80.30,11.30 80.60,12.50 80.60,12.50 Z
           M 98.60,20.30
           C 97.35,21.29 96.36,21.91 94.70,21.74
             88.16,21.09 88.79,10.62 95.60,11.03
             96.87,11.11 97.54,11.59 98.60,12.20
             99.08,11.04 99.84,11.30 101.00,11.30
             101.00,11.30 101.00,21.50 101.00,21.50
             99.62,21.48 99.15,21.67 98.60,20.30 Z
           M 105.50,12.50
           C 106.20,12.00 106.77,11.61 107.60,11.33
             109.77,10.61 112.11,11.80 112.80,14.00
             113.13,15.05 113.00,20.05 113.00,21.50
             112.24,21.49 111.18,21.62 110.78,20.81
             110.28,19.79 110.99,16.31 110.25,14.91
             109.23,13.00 107.15,13.19 106.05,14.91
             105.43,15.89 105.50,17.09 105.50,18.20
             105.50,18.20 105.50,21.50 105.50,21.50
             105.50,21.50 103.10,21.50 103.10,21.50
             103.10,21.50 103.10,11.30 103.10,11.30
             103.10,11.30 105.50,11.30 105.50,11.30
             105.50,11.30 105.50,12.50 105.50,12.50 Z
           M 113.60,11.30
           C 113.60,11.30 116.39,11.60 116.39,11.60
             116.39,11.60 117.40,13.70 117.40,13.70
             117.40,13.70 119.00,18.20 119.00,18.20
             119.60,16.90 121.18,12.21 122.12,11.61
             122.73,11.21 123.97,11.30 124.70,11.30
             124.70,11.30 118.70,25.70 118.70,25.70
             118.70,25.70 116.00,25.70 116.00,25.70
             116.00,25.70 117.34,21.20 117.34,21.20
             117.34,21.20 116.24,17.90 116.24,17.90
             116.24,17.90 113.60,11.30 113.60,11.30 Z
           M 0.50,12.50
           C 0.50,12.50 10.40,14.90 10.40,14.90
             10.40,14.90 6.47,15.19 6.47,15.19
             6.47,15.19 0.50,15.19 0.50,15.19
             0.50,15.19 0.50,12.50 0.50,12.50 Z
           M 95.00,13.22
           C 90.84,14.57 92.61,20.33 96.50,19.27
             99.60,18.43 99.42,12.85 95.00,13.22 Z
           M 52.41,13.53
           C 49.25,14.83 50.06,18.93 52.70,19.33
             55.98,19.83 57.03,15.53 54.76,13.92
             53.97,13.36 53.30,13.41 52.41,13.53 Z
           M 83.00,13.52
           C 78.92,14.88 80.95,19.82 84.20,19.16
             87.52,18.47 87.45,13.12 83.00,13.52 Z
           M 0.50,20.60
           C 0.50,19.94 0.41,18.60 0.81,18.07
             1.24,17.50 2.52,17.39 3.20,17.28
             4.78,17.01 9.41,16.03 10.70,16.40
             10.70,16.40 0.50,20.60 0.50,20.60 Z
           M 11.00,17.30
           C 10.67,18.46 8.93,19.67 8.00,20.47
             8.00,20.47 5.30,22.76 5.30,22.76
             3.43,24.36 2.60,24.53 0.80,22.76
             0.80,22.76 11.00,17.30 11.00,17.30 Z
           M 12.20,18.20
           C 12.20,18.20 11.08,21.80 11.08,21.80
             11.08,21.80 8.60,27.50 8.60,27.50
             8.60,27.50 5.90,26.00 5.90,26.00
             5.90,26.00 12.20,18.20 12.20,18.20 Z
           M 26.60,19.10
           C 26.93,19.92 26.93,20.61 26.89,21.49
             26.82,23.40 25.24,23.98 23.60,24.50
             23.60,24.50 26.60,19.10 26.60,19.10 Z" />
</svg>
